<svg width="27" height="27" viewBox="0 0 27 27" fill="none"
  xmlns="http://www.w3.org/2000/svg">
  <path d="M4 21.4091C3.44772 21.4091 3 21.8568 3 22.4091C3 22.9614 3.44772 23.4091 4 23.4091V21.4091ZM15.2273 25L14.5202 25.7071L15.2273 26.4142L15.9344 25.7071L15.2273 25ZM15.8676 17.8477L15.4615 18.7615L15.8676 17.8477ZM14.7869 17.3086L14.2158 18.1295L14.7869 17.3086ZM13.5537 15.4111L12.5716 15.5995L13.5537 15.4111ZM7.72807 17.9541L8.17529 18.8486L7.72807 17.9541ZM8.9403 17.2672L9.57191 18.0425L8.9403 17.2672ZM9.97316 15.596L8.99726 15.3778L9.97316 15.596ZM6.31738 18.6595L5.87017 17.7651L6.31738 18.6595ZM5.10516 19.3464L4.47354 18.5712L5.10516 19.3464ZM8.75 21.4091H4V23.4091H8.75V21.4091ZM6.76459 19.5539L8.17529 18.8486L7.28086 17.0597L5.87017 17.7651L6.76459 19.5539ZM11.0656 22.2526L14.5202 25.7071L15.9344 24.2929L12.4798 20.8383L11.0656 22.2526ZM15.9344 25.7071L23.7071 17.9344L22.2929 16.5202L14.5202 24.2929L15.9344 25.7071ZM17.7925 17.6089L16.2737 16.9339L15.4615 18.7615L16.9802 19.4365L17.7925 17.6089ZM9.31818 11.1818V9.45455H7.31818V11.1818H9.31818ZM14.2273 9.45455V11.1818H16.2273V9.45455H14.2273ZM14.2273 11.1818C14.2273 12.5374 13.1283 13.6364 11.7727 13.6364V15.6364C14.2329 15.6364 16.2273 13.642 16.2273 11.1818H14.2273ZM11.7727 7C13.1283 7 14.2273 8.09894 14.2273 9.45455H16.2273C16.2273 6.99437 14.2329 5 11.7727 5V7ZM9.31818 9.45455C9.31818 8.09894 10.4171 7 11.7727 7V5C9.31255 5 7.31818 6.99437 7.31818 9.45455H9.31818ZM7.31818 11.1818C7.31818 13.642 9.31255 15.6364 11.7727 15.6364V13.6364C10.4171 13.6364 9.31818 12.5374 9.31818 11.1818H7.31818ZM16.2737 16.9339C15.6719 16.6664 15.4953 16.5832 15.3579 16.4877L14.2158 18.1295C14.5467 18.3597 14.9345 18.5273 15.4615 18.7615L16.2737 16.9339ZM12.5 14.2045C12.5 14.7812 12.4957 15.2037 12.5716 15.5995L14.5358 15.2227C14.5043 15.0584 14.5 14.8632 14.5 14.2045H12.5ZM15.3579 16.4877C14.9293 16.1895 14.6342 15.7355 14.5358 15.2227L12.5716 15.5995C12.7684 16.6252 13.3585 17.5331 14.2158 18.1295L15.3579 16.4877ZM8.17529 18.8486C8.76997 18.5512 9.20899 18.3382 9.57191 18.0425L8.30868 16.4919C8.15788 16.6148 7.96 16.7201 7.28086 17.0597L8.17529 18.8486ZM9.04545 14.2045C9.04545 14.9638 9.0397 15.188 8.99726 15.3778L10.9491 15.8142C11.0512 15.3574 11.0455 14.8694 11.0455 14.2045H9.04545ZM9.57191 18.0425C10.268 17.4753 10.7531 16.6905 10.9491 15.8142L8.99726 15.3778C8.89929 15.8159 8.65675 16.2084 8.30868 16.4919L9.57191 18.0425ZM5 22.4091C5 21.6498 5.00575 21.4257 5.0482 21.2359L3.0964 20.7994C2.99425 21.2563 3 21.7442 3 22.4091H5ZM5.87017 17.7651C5.27549 18.0624 4.83647 18.2755 4.47354 18.5712L5.73677 20.1217C5.88757 19.9989 6.08546 19.8935 6.76459 19.5539L5.87017 17.7651ZM5.0482 21.2359C5.14617 20.7977 5.3887 20.4053 5.73677 20.1217L4.47354 18.5712C3.77741 19.1383 3.29234 19.9231 3.0964 20.7994L5.0482 21.2359Z" fill="#727374"/>
  <rect x="19" width="8" height="8" rx="4" fill="#15C39A"/>
</svg>
